<svg xmlns:svg="http://www.w3.org/2000/svg" xmlns="http://www.w3.org/2000/svg" version="1.1" width="1601.3" height="55" xml:space="preserve"><style>.s0{opacity:0.7;}.s1{fill:#e6e6e6;}</style><defs><clipPath clipPathUnits="userSpaceOnUse"><path d="M0 900 1400 900 1400 0 0 0 0 900z"/></clipPath><clipPath clipPathUnits="userSpaceOnUse"><path d="m155.4 744.2 9.4 0 0-9.4-9.4 0 0 9.4z"/></clipPath><clipPath clipPathUnits="userSpaceOnUse"><path d="m170.8 744.2 9.4 0 0-9.4-9.4 0 0 9.4z"/></clipPath><clipPath clipPathUnits="userSpaceOnUse"><path d="m186.2 744.2 9.4 0 0-9.4-9.4 0 0 9.4z"/></clipPath></defs><g transform="matrix(1.25,0,0,-1.25,0,55)"><path d="m0 0 0 28.8 1601.9 0 0-28.7z" transform="matrix(0.8,0,0,-0.8,0,44)" fill="#ccc"/><g clip-path="url(#clipPath28)" transform="translate(-147,-708)" opacity="0.7"><g transform="translate(164.7979,739.5)"><path d="m0 0c0-2.6-2.1-4.7-4.7-4.7-2.6 0-4.7 2.1-4.7 4.7 0 2.6 2.1 4.7 4.7 4.7C-2.1 4.7 0 2.6 0 0" fill="#e74c3c"/></g></g><g clip-path="url(#clipPath44)" transform="translate(-147,-708)" opacity="0.7"><g transform="translate(180.209,739.5)"><path d="m0 0c0-2.6-2.1-4.7-4.7-4.7-2.6 0-4.7 2.1-4.7 4.7 0 2.6 2.1 4.7 4.7 4.7C-2.1 4.7 0 2.6 0 0" fill="#f1c40f"/></g></g><g clip-path="url(#clipPath60)" transform="translate(-147,-708)" opacity="0.7"><g transform="translate(195.6206,739.5)"><path d="m0 0c0-2.6-2.1-4.7-4.7-4.7-2.6 0-4.7 2.1-4.7 4.7 0 2.6 2.1 4.7 4.7 4.7C-2.1 4.7 0 2.6 0 0" fill="#2ecc71"/></g></g><path d="m167 35c-0.4 1.2-1.3 2-3 2l-91 0c-1.7 0-2.6-0.9-3-2l-4-12.4c-0.3-1-2-1.5-2-1.5l109 0c0 0-1.7 0.4-2 1.5l-4 12.4zM1283.7 0 0 0 0 21 1283.7 21z" fill="#e6e6e6"/></g></svg>
