<svg version="1.1" xmlns="http://www.w3.org/2000/svg" x="0" y="0" viewBox="0 0 125.1 55" enable-background="new 0 0 125.1 55" xml:space="preserve" id="logo"><path d="M18.4 27.4l1.9 5.9h4.6l-0.3-10H0v3.1c1.2 0.2 2.5 0.5 3.5 1.1v23.2c-1.1 0.5-2.4 0.9-3.5 1.1v2.8h14.4v-2.8c-1.1-0.2-2.4-0.5-3.5-1.1v-9.2h8.2v-4.4h-8.2v-9.7H18.4zM33.7 32.1c-6.5 0-11.1 4.1-11.1 11.2 0 6.8 4 11.7 10.6 11.7 6.5 0 11.1-4.1 11.1-11.2C44.3 37 40.4 32.1 33.7 32.1zM35.9 51.4c-0.4 0.2-0.9 0.3-1.4 0.3 -3.3 0-5.1-3.7-5.1-9.7 0-2.7 0.5-4.6 1.7-5.8 0.4-0.2 0.9-0.3 1.4-0.3 3.2 0 5 3.6 5 9.8C37.5 48.4 37 50.2 35.9 51.4zM85.3 40.5l4.6-4.6c1-0.6 2.2-0.9 3.3-1v-2.5H82.7V35c1.1 0.1 1.8 0.4 2.6 0.9l-6.1 6.3V31c0-2.6-0.1-6.5-0.2-8.8l-10.2 0.6v3.3l3.6 0.5c0.1 0.6 0.2 3.3 0.2 4.3v20.1c-0.8 0.4-1.7 0.7-2.5 0.8 -0.9-0.2-1.7-0.4-2.5-0.8V40c0-4.6-2.5-7.9-6.7-7.9 -3 0-4.9 1.4-6.9 3.5 0-1.2-0.1-2.5-0.2-3.4l-9.8 0.6v3.3l3.6 0.5c0.1 0.6 0.1 3.3 0.1 4.3v10.1c-1 0.5-2.2 0.8-3.2 1v2.5h12.2V52c-0.9-0.2-1.5-0.3-2.4-0.9V38c1.2-0.7 2.3-1 3.5-1 1.7 0 3.2 0.7 3.2 3.8v10.3c-0.8 0.5-1.4 0.7-2.4 0.9v2.6h22.9V52c-0.9-0.2-1.6-0.3-2.3-0.9v-4.4l1.6-1.6 5.5 9.5h8.8V52c-1.1-0.2-2.2-0.5-3.3-1L85.3 40.5zM110.7 48c-1.4 1.5-2.9 2.6-5.3 2.6 -2.2 0-5-1.6-5.6-6.4h11.1c0.7-0.6 1.2-1.4 1.7-2.2 0-5.7-3.6-9.8-8.7-9.8 -6.9 0-10.9 5.6-10.9 11.4 0 6.5 3.7 11.4 10.7 11.4 4.4 0 7.6-2.4 9.1-5.1L110.7 48zM101.7 35.6c0.3 0 0.5 0 0.8 0 2.8 0 4.4 1.9 4.4 5.2 0 0.2-3.1 0.3-7.2 0.3C99.8 38.9 100.4 37 101.7 35.6zM121.8 51.1V31c0-2.6-0.1-6.5-0.2-8.8l-10.2 0.6v3.3l3.6 0.5c0.1 0.6 0.2 3.3 0.2 4.3v20.1c-1 0.5-2.2 0.8-3.3 1v2.5h13.1V52C124 51.9 122.8 51.6 121.8 51.1zM49.2 0H0.6v17.9h48.6V0zM6.2 14.8c-2.2 0-3.6-1.4-3.6-3.3h1.6c0 1.1 0.8 1.7 1.9 1.7 1.3 0 2.1-0.7 2.1-1.7 0-0.8-0.4-1.3-1-1.6C6.7 9.5 5.9 9.1 4.5 8.4c-1-0.5-1.6-1.5-1.6-2.7 0-1.8 1.4-3.1 3.4-3.1 2.1 0 3.5 1.4 3.5 3.2H8c0-1.1-0.8-1.6-1.8-1.6 -1 0-1.8 0.6-1.8 1.5 0 0.6 0.3 1 0.9 1.3C6.3 7.5 7.2 8 8 8.4c1.2 0.7 1.9 1.7 1.9 3.1C9.8 13.4 8.2 14.8 6.2 14.8zM16 14.6h-1.2c-1.2 0-2.2-0.7-2.2-2.4V7.5h-1.6V5.9h1.6V2.7h1.6v3.2h1.8v1.6h-1.8v4.9c0 0.6 0.3 0.7 0.7 0.7H16V14.6zM24.5 14.6h-1.6v-0.6c-0.3 0.3-1 0.7-1.7 0.7 -2 0-3.3-1.3-3.3-3.2V5.8h1.6v5.7c0 0.8 0.3 1.6 1.7 1.6 1 0 1.7-0.6 1.7-1.5V5.8h1.6V14.6zM31.6 7.9c-0.3-0.4-0.7-0.6-1.4-0.6 -1.4 0-1.7 0.9-1.7 1.6v2.7c0 1 0.6 1.6 1.7 1.6 0.7 0 1.1-0.2 1.4-0.6v1.7c-0.4 0.2-0.9 0.4-1.4 0.4 -2 0-3.3-1.3-3.3-3.2V8.9c0-2 1.3-3.2 3.3-3.2 0.5 0 1 0.2 1.4 0.4V7.9zM33.5 14.6h-1.6v-12h1.6V14.6zM37.8 14.6h-1.6V5.8h1.6V14.6zM37.9 4.7H36V2.6h1.9V4.7zM43.5 7.3c-1 0.1-1.6 0.6-1.6 1.6v2.7c0 0.7 0.3 1.5 1.6 1.6v1.6c-1.9-0.1-3.2-1.3-3.2-3.2V8.9c0-1.9 1.3-3.1 3.2-3.2V7.3zM47 11.6c0 1.9-1.3 3.1-3.2 3.2v-1.6c1-0.1 1.6-0.6 1.6-1.6V8.9c0-0.7-0.3-1.5-1.6-1.6V5.8C45.7 5.8 47 7 47 8.9V11.6z"/>
</svg>
