<svg version="1.1" xmlns="http://www.w3.org/2000/svg" x="0" y="0" viewBox="0 0 28.4 28.4" xml:space="preserve"><path d="M25.4 8.9c0-0.2 0-0.4-0.1-0.6l0 0 0 0c-0.1-0.2-0.2-0.3-0.3-0.5l0 0c-0.2-0.3-0.5-0.5-0.8-0.6h-0.1c-0.2 0-0.3-0.1-0.5-0.1H5.3C5.2 7 5 7.1 4.8 7.1H4.7C4.4 7.3 4.1 7.5 3.9 7.7c0 0 0 0 0 0.1C3.8 7.9 3.7 8.1 3.6 8.2l0 0 0 0C3.5 8.5 3.5 8.7 3.5 8.9v11.9c0 0.2 0 0.4 0.1 0.6l0 0 0 0c0.1 0.2 0.2 0.3 0.3 0.5 0 0 0 0 0 0.1 0.2 0.3 0.5 0.5 0.8 0.6h0.1c0.2 0 0.3 0.1 0.5 0.1h18.2c0.2 0 0.3 0 0.5-0.1h0.1c0.3-0.1 0.6-0.3 0.8-0.6l0 0c0.1-0.1 0.2-0.3 0.3-0.5l0 0 0 0c0.1-0.2 0.1-0.4 0.1-0.7V8.9H25.4zM18.3 14.8l6-5.4v10.8L18.3 14.8zM23.5 8c0.1 0 0.2 0 0.3 0.1l0 0c0.1 0 0.2 0.1 0.3 0.2l0 0L14.4 17 4.7 8.3l0 0C4.8 8.2 4.9 8.2 5 8.1l0 0C5.1 8.1 5.2 8 5.3 8H23.5zM4.5 9.5l6 5.4 -6 5.4V9.5zM5.3 21.6c-0.1 0-0.2 0-0.3-0.1l0 0c-0.1 0-0.2-0.1-0.2-0.2l0 0 6.6-5.8 2.8 2.5c0.1 0.1 0.2 0.1 0.3 0.1s0.2 0 0.3-0.1l2.8-2.5 6.6 5.8 0 0c-0.1 0.1-0.2 0.1-0.3 0.2l0 0c-0.1 0-0.2 0.1-0.3 0.1H5.3z"/></svg>