<svg version="1.1" xmlns="http://www.w3.org/2000/svg" x="0" y="0" viewBox="0 0 28.4 28.4" xml:space="preserve"><path d="M21 25.9c-4.3 0-8.8-2-12.3-5.5C5 16.7 3 12.1 3.1 7.7V7.5l0.1-0.1c0.4-0.4 0.7-0.7 1-1 1.2-1.2 2.5-2.1 4.1-2.6 0.1-0.1 0.3-0.1 0.5-0.1 0.5 0 1.4 0.3 1.6 0.8C10.9 6 11.6 8 12.1 9.8c0.1 0.4 0 1.4-0.5 1.7l-1.8 1.1c-0.1 0.1-0.2 0.2-0.2 0.3 -0.1 0.3 0.1 0.7 0.3 1 0.7 1 1.5 1.9 2.4 2.8s1.9 1.7 2.8 2.4c0.5 0.4 1.1 0.4 1.3 0.1l1.1-1.8c0.3-0.5 1.1-0.5 1.4-0.5 0.1 0 0.2 0 0.3 0 2.3 0.5 3.7 1 5.4 1.7 0.5 0.2 0.9 1.4 0.7 2 -0.6 1.5-1.5 2.9-2.6 4.1 -0.3 0.3-0.7 0.6-1.1 0.9l-0.1 0.1L21 25.9 21 25.9zM4.1 7.9c0 4.1 1.8 8.4 5.2 11.7l0.1 0.1c3.3 3.3 7.5 5.2 11.6 5.2h0.1c0.3-0.2 0.6-0.5 0.8-0.7 1.1-1.1 1.9-2.3 2.4-3.7 0.1-0.2-0.1-0.7-0.2-0.8 -1.6-0.7-2.9-1.1-5.1-1.6 -0.3 0-0.6 0.1-0.7 0.1l-1.1 1.7c-0.5 0.8-1.8 0.9-2.8 0.2 -1-0.7-2-1.6-2.9-2.5 -0.9-1-1.8-1.9-2.5-2.9 -0.4-0.6-0.6-1.2-0.5-1.8 0.1-0.4 0.3-0.8 0.6-1l1.8-1.1c0-0.1 0.1-0.5 0.1-0.6 -0.5-1.8-1.2-3.8-1.7-5.3 0 0-0.4-0.1-0.7-0.1 -0.1 0-0.1 0-0.1 0C7.2 5.2 6 6 4.9 7.1 4.6 7.3 4.4 7.6 4.1 7.9L4.1 7.9z"/></svg>