<?xml version="1.0" encoding="UTF-8" standalone="no"?>
<!-- Generator: Adobe Illustrator 17.1.0, SVG Export Plug-In . SVG Version: 6.00 Build 0)  -->

<svg
   xmlns:dc="http://purl.org/dc/elements/1.1/"
   xmlns:cc="http://creativecommons.org/ns#"
   xmlns:rdf="http://www.w3.org/1999/02/22-rdf-syntax-ns#"
   xmlns:svg="http://www.w3.org/2000/svg"
   xmlns="http://www.w3.org/2000/svg"
   xmlns:sodipodi="http://sodipodi.sourceforge.net/DTD/sodipodi-0.dtd"
   xmlns:inkscape="http://www.inkscape.org/namespaces/inkscape"
   version="1.1"
   id="Laag_1"
   x="0px"
   y="0px"
   viewBox="0 0 56.7 56.7"
   enable-background="new 0 0 56.7 56.7"
   xml:space="preserve"
   inkscape:version="0.48.5 r10040"
   width="100%"
   height="100%"
   sodipodi:docname="quote.svg"><metadata
     id="metadata27"><rdf:RDF><cc:Work
         rdf:about=""><dc:format>image/svg+xml</dc:format><dc:type
           rdf:resource="http://purl.org/dc/dcmitype/StillImage" /></cc:Work></rdf:RDF></metadata><defs
     id="defs25" /><sodipodi:namedview
     pagecolor="#ffffff"
     bordercolor="#666666"
     borderopacity="1"
     objecttolerance="10"
     gridtolerance="10"
     guidetolerance="10"
     inkscape:pageopacity="0"
     inkscape:pageshadow="2"
     inkscape:window-width="1920"
     inkscape:window-height="1056"
     id="namedview23"
     showgrid="false"
     inkscape:zoom="16.64903"
     inkscape:cx="20.51688"
     inkscape:cy="30.274859"
     inkscape:window-x="1920"
     inkscape:window-y="24"
     inkscape:window-maximized="1"
     inkscape:current-layer="Laag_1" /><g
     id="g3"
     style="fill:#fec81c;fill-opacity:1"><g
       id="g5"
       style="fill:#fec81c;fill-opacity:1"><path
         fill="#ECB026"
         d="M28.3,56.6c-15.6,0-28.3-12.7-28.3-28.3c0-15.6,12.7-28.3,28.3-28.3c15.6,0,28.3,12.7,28.3,28.3    C56.6,43.9,43.9,56.6,28.3,56.6L28.3,56.6z M28.3,1.3c-14.9,0-27,12.1-27,27c0,14.9,12.1,27,27,27c14.9,0,27-12.1,27-27    C55.4,13.5,43.2,1.3,28.3,1.3L28.3,1.3z"
         id="path7"
         style="fill:#fec81c;fill-opacity:1" /></g></g><g
     id="g9"><g
       id="g11"><path
         fill="#ECB026"
         d="M21,40.9c-0.1,0-0.2,0-0.3-0.1c-0.2-0.1-0.4-0.3-0.4-0.6v-4.1h-3.5c-1,0-1.9-0.8-1.9-1.9V20.2    c0-1,0.8-1.9,1.9-1.9h22.9c1,0,1.9,0.8,1.9,1.9v14.1c0,1-0.8,1.9-1.9,1.9H27.1l-5.8,4.6C21.2,40.9,21.1,40.9,21,40.9L21,40.9z     M16.9,19.6c-0.3,0-0.6,0.3-0.6,0.6v14.1c0,0.3,0.3,0.6,0.6,0.6H21c0.3,0,0.6,0.3,0.6,0.6V39l4.9-3.9c0.1-0.1,0.2-0.1,0.4-0.1    h12.9c0.3,0,0.6-0.3,0.6-0.6V20.2c0-0.3-0.3-0.6-0.6-0.6H16.9L16.9,19.6z"
         id="path13"
         style="fill:#fec81c;fill-opacity:1" /></g><g
       id="g15"
       style="fill:#fec81c;fill-opacity:1"><path
         fill="#ECB026"
         d="M35.7,25.9H21.6c-0.3,0-0.6-0.3-0.6-0.6c0-0.3,0.3-0.6,0.6-0.6h14.1c0.3,0,0.6,0.3,0.6,0.6    C36.4,25.6,36.1,25.9,35.7,25.9L35.7,25.9z"
         id="path17"
         style="fill:#fec81c;fill-opacity:1" /></g><g
       id="g19"
       style="fill:#fec81c;fill-opacity:1"><path
         fill="#ECB026"
         d="M35.7,29.7H21.6c-0.3,0-0.6-0.3-0.6-0.6c0-0.3,0.3-0.6,0.6-0.6h14.1c0.3,0,0.6,0.3,0.6,0.6    C36.4,29.5,36.1,29.7,35.7,29.7L35.7,29.7z"
         id="path21"
         style="fill:#fec81c;fill-opacity:1" /></g></g></svg>
